<?xml version="1.0" encoding="utf-8"?>
<!-- Generator: Adobe Illustrator 25.2.1, SVG Export Plug-In . SVG Version: 6.00 Build 0)  -->
<svg version="1.1" id="Layer_1" xmlns="http://www.w3.org/2000/svg" xmlns:xlink="http://www.w3.org/1999/xlink" x="0px" y="0px"
	 viewBox="0 0 18 10" style="enable-background:new 0 0 18 10;" xml:space="preserve">
<g>
	<path d="M9,0c-3.6,0-7,1.9-9,5c2,3.1,5.3,5,9,5c3.7,0,7-1.9,9-5C16,1.9,12.7,0,9,0z M9,8.6C6.1,8.6,3.4,7.2,1.9,5
		C3.4,2.8,6.1,1.4,9,1.4c2.9,0,5.6,1.4,7.1,3.6C14.6,7.2,11.9,8.6,9,8.6z"/>
	<path d="M9,2.2C7.4,2.2,6,3.4,6,5c0,1.6,1.3,2.8,3,2.8c1.7,0,3-1.3,3-2.8C12,3.4,10.7,2.2,9,2.2z M8.3,5.3c-0.6,0-1-0.4-1-0.9
		c0-0.5,0.4-0.9,1-0.9c0.6,0,1,0.4,1,0.9C9.3,4.9,8.9,5.3,8.3,5.3z"/>
</g>
</svg>
